<svg version="1.1" id="layer" xmlns="http://www.w3.org/2000/svg" xmlns:xlink="http://www.w3.org/1999/xlink" x="0px" y="0px"
	 viewBox="0 0 652 326" style="enable-background:new 0 0 652 326;" xml:space="preserve">
<style type="text/css">
	.st0{fill:#08215C;}
</style>
<path class="st0" d="M103.7,320.1v23.5h32.7c-2.1,17.7-16.7,29.4-36.5,29.4c-26,0-45.4-20.2-45.4-47.3c0-27.7,19.6-48.5,45.6-48.5
	c15.4,0,27.7,7.1,36,20.6l23.7-12.7c-13.1-21.5-33.8-32.7-59.6-32.7c-42.7,0-73.7,31-73.7,73.3c0,41.5,30.8,71.9,72.9,71.9
	c27.5,0,48.7-12.9,60.4-36.3c5.2-10.6,7.1-21,7.3-41.2L103.7,320.1 M212.2,319.5v-42.1h8.3c17.1,0,26,7.1,26,20.8
	c0,13.8-9.4,21.2-26.5,21.2H212.2 M242.9,336c8.7-1.7,13.7-4.2,19.2-8.7c7.7-6.7,12.5-18.1,12.5-30.6c0-12.3-5.2-24.2-13.8-31.2
	c-7.7-6.5-20-9.8-35.4-9.8h-40.2v139h27.1v-55.8h3.5l37.5,55.8h33.3L242.9,336z M384.7,343.3h-39.6l20.2-50L384.7,343.3z
	 M393.3,365.1l11.9,29.4h29l-58.3-141.9h-20.4l-60.2,141.9h28.7l12.5-29.4H393.3L393.3,365.1z M526.2,279.1v-23.5h-76.9v139h76.9
	V371h-49.8v-37.5h47.9v-23.5h-47.9v-30.8H526.2z M625.9,279.1v-23.5h-73.5v139h27.1v-61H623v-23.5h-43.5v-30.8H625.9z M614.4,370.7
	c-7.8,4.3-12.3,12.3-12,21.1c1.8,1.2,3.8,2,5.8,2.6c6.2,1.9,13.3,0.7,18.4-2.6C626.8,382.9,622.3,374.9,614.4,370.7"/>
</svg>
